<svg id="Layer_1" xmlns="http://www.w3.org/2000/svg" width="411" height="220" viewBox="0 0 411 220"><style>.st0{fill:#afc7f9;stroke-width:2.7492;stroke-linecap:round;stroke-linejoin:round}.st0,.st1,.st2{stroke:#111}.st1,.st2,.st3{stroke-width:2.7492;stroke-linecap:round;stroke-linejoin:round}.st1{fill:none}.st2{fill:#87a8f4}.st3{fill:#fff;stroke:#3f50b1}.st4{opacity:.25;fill:#111;enable-background:new}.st5,.st6,.st7{fill:none;stroke:#3f50b1;stroke-width:2.7492;stroke-linecap:round;stroke-linejoin:round}.st6,.st7{fill:#f3f3f3;stroke:#111}.st7{fill:#ccc}.st8,.st9{stroke-miterlimit:10}.st8{opacity:.4;enable-background:new;fill:#6580d9;stroke:#111;stroke-width:.6873}.st9{fill:none;stroke:#231f20;stroke-width:2.0619;stroke-linecap:round}.st10{fill:#02c54c}.st11{opacity:.4;fill:#6580d9;enable-background:new}.st12{fill:#fdfd96;stroke:#111;stroke-width:2.0619;stroke-linecap:round;stroke-linejoin:round}.st13{fill:none}.st13,.st14{stroke:#111;stroke-width:2.0619;stroke-linecap:round;stroke-linejoin:round}.st14,.st15{fill:#006c2a}.st16{fill:#ecfff3}.st16,.st17,.st18,.st19{stroke:#111;stroke-width:2.0619;stroke-linecap:round;stroke-linejoin:round}.st17{fill:#ffe883}.st18{fill:#fff}.st19{fill:#02c54c}.st20{fill:#ccc}.st21,.st22,.st23{stroke:#231f20}.st21,.st22,.st23,.st24{stroke-width:2.0619;stroke-linejoin:round}.st21{stroke-linecap:round;fill:#afc7f9}.st22,.st23,.st24{fill:none}.st23,.st24{stroke-linecap:round}.st24{stroke:#fff}.st25{fill:#fff}.st26{fill:#111}.st27{fill:#ffe883}.st28{fill:none;stroke:#231f20;stroke-width:2.7492;stroke-linejoin:round}</style><title>Vector Smart Object3</title><path class="st0" d="M67.4 135.5h276.3v5.5H67.4zm13 5.5h5.5v77.7h-5.5z"/><path class="st1" d="M37.9 218.7H1.4m408.2 0H46.1"/><path class="st2" d="M303.8 141h5.5v77.7h-5.5z"/><path class="st3" d="M291.4 135.5h52.2v5.5h-52.2z"/><path class="st2" d="M291.4 135.5h52.2v5.5h-52.2zm33.7 5.5h5.5v77.7h-5.5z"/><path class="st0" d="M101.7 141h5.5v77.7h-5.5z"/><path class="st2" d="M325.1 141h5.5v77.7h-5.5zm-21.3 0h5.5v77.7h-5.5z"/><path class="st4" d="M325.1 141h5.5v4.1h-5.5zm-21.3 0h5.5v4.1h-5.5zm-223.3 0H86v4.1h-5.5zm21.3 0h5.5v4.1h-5.5z"/><path class="st1" d="M120.4 141h10.3m-10.3-5.5h10.3"/><path class="st6" d="M320.1 51.9h-79.5c-1.1-.1-2 .8-2.1 1.9v62.6c0 1.1.8 2 1.9 2.1H320c1.1 0 2-.8 2.1-1.9V53.9c.1-1.1-.8-2-2-2 .1-.1.1-.1 0 0z"/><path class="st7" d="M320.1 51.9h-79.5c-1.1-.1-2 .8-2.1 1.9v62.6c0 1.1.8 2 1.9 2.1H320c1.1 0 2-.8 2.1-1.9V53.9c.1-1.1-.8-2-2-2 .1-.1.1-.1 0 0z"/><path class="st6" d="M281.8 135.5v-17.1h-11v13h-9.6c-1.1.1-2 1.1-1.9 2.2.1 1 .9 1.8 1.9 1.9h20.6z"/><path class="st4" d="M270.8 118.3h11v4.1h-11z"/><path class="st3" d="M281.8 118.4v13h-12.3c-1.1-.1-2.1.8-2.2 1.9-.1 1.1.8 2.1 1.9 2.2h14c1.5 0 2.7-1.2 2.7-2.7v-14.4h-4.1z"/><path class="st7" d="M281.8 118.4v13h-12.3c-1.1-.1-2.1.8-2.2 1.9-.1 1.1.8 2.1 1.9 2.2h14c1.5 0 2.7-1.2 2.7-2.7v-14.4h-4.1z"/><path class="st6" d="M316 51.9h-79.5c-1.1 0-2 .8-2.1 1.9v62.5c0 1.1.8 2 1.9 2.1H316c1.1 0 2-.8 2.1-1.9V53.9c0-1.1-.8-2-1.9-2.1-.1 0-.1 0-.2.1z"/><circle class="st9" cx="276.3" cy="112.8" r="2.2"/><path class="st10" d="M242.2 57.5h68.3c1.1 0 2 .9 2 2v45.8c0 1.1-.9 2-2 2h-68.3c-1.1 0-2-.9-2-2V59.5c-.1-1.1.9-2 2-2z"/><path class="st12" d="M335.8 58.2c-.8-.8-2.1-.8-3 0 .8-.8.8-2.1 0-3 .8.8 2.1.8 3 0-.9.8-.9 2.2 0 3-.1 0-.1 0 0 0z"/><path class="st13" d="M349.8 47.2l-1.5-1.5m1.5 0l-1.5 1.5"/><path class="st14" d="M334 17.9s-13.1-1.6-18.6 13.1c-.2.4 0 .8.4 1 .2.1.4.1.6 0 2.6-.9 5.4-1.3 8.1-1.2"/><path class="st15" d="M329.2 35.4c.2 2.8-.2 5.5-1.1 8.1-.2.4-.1.8.3 1 .2.1.5.1.7 0 14.6-5.6 12.8-18.8 12.8-18.8"/><path class="st16" d="M340.8 33.4c1-2.5 1.3-5.1 1.1-7.8"/><path class="st14" d="M329.2 35.4c.2 2.8-.2 5.5-1.1 8.1-.2.4-.1.8.3 1 .2.1.5.1.7 0 3.3-1.2 6.2-3.2 8.5-5.8"/><path class="st17" d="M329.2 35.4s-.3 6.2-10.2 5.7c-.7-10 5.6-10.3 5.6-10.3"/><path class="st19" d="M329.2 35.4c16.3-5.2 15.5-20.4 15.5-20.4s-15.2-.6-20.2 15.8l4.7 4.6z"/><ellipse transform="rotate(-45.372 336.44 23.405)" class="st16" cx="336.5" cy="23.4" rx="3.3" ry="3.3"/><path class="st13" d="M325.7 28.3l5.8 5.7"/><circle class="st20" cx="291.1" cy="35.6" r="8"/><path class="st21" d="M296.3 29c3.5 2.9 3.9 8 1.1 11.4-2.9 3.5-8 3.9-11.4 1.1-3.5-2.9-3.9-8-1.1-11.4 1.5-1.9 3.8-2.9 6.2-2.9"/><circle class="st22" cx="294" cy="36.5" r="2.2"/><path class="st23" d="M287.3 29.3c.7.9.5 2.1-.4 2.8-.7.5-1.7.5-2.4 0m.6 8.1c.6-.6 1.6-.5 2.2.1.6.6.5 1.6-.1 2.2"/><path class="st13" d="M302.2 48.3l12.1-12.2"/><path class="st24" d="M283 67.7l6.7-6.8"/><path class="st13" d="M310.3 48.3l4-4.1"/><path class="st24" d="M293.5 66.4l5.5-5.5m-15.4 15.4l4-4"/><path class="st13" d="M318.8 48.3l2.9-3"/><path class="st24" d="M294.8 74.8l13.8-13.9m-27 26.7l7.3-7.3"/><path class="st25" d="M240.9 79.3l-.7.6v25.4c0 1.1.8 2 1.9 2H269c7.6-7.8 7.5-20.2-.1-27.9-7.6-7.7-20.1-7.8-27.8-.2-.1 0-.1.1-.2.1z"/><path class="st13" d="M312.1 13.9l1.5 1.5m-1.5 0l1.5-1.5"/><path class="st12" d="M323.2 4c0-.8-.7-1.5-1.5-1.5.8 0 1.5-.7 1.5-1.5 0 .8.7 1.5 1.5 1.5-.8 0-1.5.7-1.5 1.5z"/><path class="st13" d="M360.9 6.9l-1.5-1.4m1.5 0l-1.5 1.4"/><circle class="st26" cx="340.2" cy="5.5" r=".7"/><circle class="st26" cx="331.3" cy="11.4" r=".7"/><circle class="st26" cx="300" cy="17.3" r=".7"/><circle class="st26" cx="306.6" cy="27.6" r=".7"/><circle class="st26" cx="326.4" cy="62.3" r=".7"/><circle class="st18" cx="284.4" cy="18.4" r="1.1"/><circle class="st26" cx="349" cy="35.4" r=".7"/><path class="st13" d="M296.6 86.3l-1.5-1.5m1.5 0l-1.5 1.5"/><circle class="st26" cx="306.6" cy="92.6" r=".7"/><circle class="st13" cx="307" cy="78.9" r="1.1"/><path class="st27" d="M240.9 79.3l-.7.6v25.4c0 1.1.8 2 1.9 2H269c7.6-7.8 7.5-20.2-.1-27.9-7.6-7.7-20.1-7.8-27.8-.2-.1 0-.1.1-.2.1z"/><path class="st13" d="M248.1 107.1c5-3.1 9.7-6.8 13.8-11 11-11 17-22.9 13.4-26.5-2.4-2.4-8.7-.5-15.8 4.5"/><path class="st13" d="M240.9 79.3l-.7.6v25.4c0 1.1.8 2 1.9 2H269c7.6-7.8 7.5-20.2-.1-27.9-7.6-7.7-20.1-7.8-27.8-.2-.1 0-.1.1-.2.1z"/><path class="st28" d="M242.3 57.5h68.3c1.1 0 2 .9 2 2v45.8c0 1.1-.9 2-2 2h-68.3c-1.1 0-2-.9-2-2V59.5c-.1-1.1.8-2 2-2z"/><circle class="st13" cx="353.5" cy="22.8" r="1.1"/></svg>